<svg xmlns="http://www.w3.org/2000/svg" xmlns:xlink="http://www.w3.org/1999/xlink" width="500" zoomAndPan="magnify" viewBox="0 0 375 374.999991" height="500" preserveAspectRatio="xMidYMid meet" version="1.0"><defs><g/><clipPath id="f4bc68cd3c"><path d="M 303.527344 148.25 L 348.527344 148.25 L 348.527344 193.25 L 303.527344 193.25 Z M 303.527344 148.25 " clip-rule="nonzero"/></clipPath><clipPath id="d2f2879c61"><path d="M 87 127.140625 L 166 127.140625 L 166 214 L 87 214 Z M 87 127.140625 " clip-rule="nonzero"/></clipPath><clipPath id="53cbe0da32"><path d="M 161 127.140625 L 230 127.140625 L 230 214 L 161 214 Z M 161 127.140625 " clip-rule="nonzero"/></clipPath><clipPath id="d0a9bebf7a"><path d="M 225 127.140625 L 303 127.140625 L 303 214 L 225 214 Z M 225 127.140625 " clip-rule="nonzero"/></clipPath><clipPath id="0dbf86c67b"><path d="M 289 127.140625 L 367 127.140625 L 367 214 L 289 214 Z M 289 127.140625 " clip-rule="nonzero"/></clipPath><clipPath id="f6534c504e"><path d="M 173.425781 146.820312 L 219.171875 146.820312 L 219.171875 191.578125 L 173.425781 191.578125 Z M 173.425781 146.820312 " clip-rule="nonzero"/></clipPath><clipPath id="f2ee3550df"><path d="M 192.898438 185.476562 C 183.375 183.601562 180.601562 182.851562 179.023438 181.574219 C 177.898438 180.675781 177.226562 179.625 176.773438 178.125 C 176.175781 175.949219 176.324219 171.976562 176.773438 169.726562 C 177.148438 168.074219 177.824219 167.101562 178.648438 165.601562 C 179.699219 163.800781 181.125 160.875 182.699219 159.601562 C 183.824219 158.699219 185.023438 158.324219 186.375 158.023438 C 187.726562 157.800781 189 157.726562 190.726562 158.175781 C 193.648438 158.925781 198.148438 161.25 201.898438 164.023438 C 206.625 167.476562 213.601562 175.425781 216.148438 178.351562 C 217.125 179.476562 217.574219 179.925781 218.023438 180.976562 C 218.550781 182.25 219.449219 184.574219 218.851562 185.625 C 218.25 186.675781 215.925781 187.351562 214.5 187.425781 C 213.300781 187.5 212.324219 187.050781 210.976562 186.449219 C 208.949219 185.476562 205.949219 183.523438 203.625 181.574219 C 201.074219 179.476562 198.226562 176.101562 196.5 174.148438 C 195.375 172.875 194.699219 172.273438 194.023438 171 C 193.199219 169.273438 192.148438 166.574219 192.226562 164.699219 C 192.226562 163.050781 192.824219 161.023438 193.648438 160.199219 C 194.25 159.601562 195.148438 159.449219 195.976562 159.523438 C 196.875 159.601562 198.074219 160.273438 198.898438 160.949219 C 199.726562 161.699219 200.324219 162.824219 200.851562 163.875 C 201.300781 164.925781 201.824219 166.050781 201.898438 167.25 C 201.976562 168.601562 201.601562 170.25 201.074219 171.523438 C 200.550781 172.726562 199.875 173.699219 198.898438 174.75 C 197.476562 176.175781 195.148438 178.050781 193.125 178.875 C 191.25 179.550781 188.773438 179.851562 187.351562 179.699219 C 186.449219 179.625 185.851562 179.476562 185.101562 178.949219 C 183.824219 177.976562 181.949219 175.875 181.050781 173.851562 C 180 171.375 179.550781 167.023438 179.699219 164.851562 C 179.851562 163.574219 180.074219 162.824219 180.75 161.925781 C 181.648438 160.726562 183.75 159.074219 185.175781 158.773438 C 186.300781 158.476562 187.425781 158.625 188.476562 159.226562 C 189.75 159.898438 190.648438 161.476562 191.925781 163.351562 C 194.324219 166.726562 198.898438 174.976562 200.550781 178.351562 C 201.375 179.925781 201.898438 180.824219 202.199219 182.101562 C 202.425781 183.148438 202.574219 184.351562 202.351562 185.324219 C 202.199219 186.226562 201.824219 187.050781 201.226562 187.648438 C 200.398438 188.398438 198.824219 189.300781 197.476562 189.300781 C 195.824219 189.226562 193.199219 187.5 191.851562 186.300781 C 190.726562 185.398438 190.199219 184.726562 189.449219 183.375 C 188.023438 180.824219 185.699219 174.824219 185.023438 171.75 C 184.574219 169.800781 184.125 167.851562 184.648438 166.875 C 185.101562 166.125 186.300781 165.449219 187.050781 165.675781 C 188.023438 165.898438 189.226562 167.925781 189.824219 169.5 C 190.574219 171.226562 190.726562 173.925781 190.875 175.800781 C 191.023438 177.300781 191.476562 178.574219 191.101562 179.773438 C 190.726562 180.898438 189.601562 182.324219 188.699219 182.773438 C 188.023438 183.148438 187.125 183.074219 186.375 182.773438 C 185.476562 182.398438 184.800781 181.5 183.824219 180.375 C 182.324219 178.425781 179.625 174.675781 178.574219 171.898438 C 177.75 169.648438 177.226562 166.574219 177.675781 165.226562 C 177.976562 164.550781 178.648438 164.101562 179.175781 163.875 C 179.699219 163.726562 180.300781 163.800781 180.75 164.101562 C 181.273438 164.398438 181.726562 164.925781 181.875 165.75 C 182.324219 167.550781 181.425781 172.875 180.449219 174.898438 C 179.851562 176.25 178.949219 177.449219 178.050781 177.675781 C 177.300781 177.898438 176.101562 177.523438 175.648438 176.925781 C 175.199219 176.398438 175.726562 175.125 175.5 174.375 C 175.273438 173.625 174.523438 173.175781 174.300781 172.351562 C 174.074219 171.449219 174.226562 169.875 174.601562 168.976562 C 175.050781 168.148438 175.800781 167.324219 176.550781 167.175781 C 177.523438 166.949219 179.398438 167.625 180.148438 168.449219 C 180.75 169.125 180.898438 170.398438 180.898438 171.449219 C 180.976562 172.5 180.824219 174.074219 180.148438 174.75 C 179.625 175.351562 178.199219 175.726562 177.523438 175.5 C 176.851562 175.199219 176.023438 174.226562 175.875 173.25 C 175.726562 172.050781 176.398438 169.425781 177.449219 168.601562 C 178.425781 167.773438 180.601562 168.074219 181.949219 168.226562 C 183.148438 168.300781 183.898438 168.523438 185.101562 169.050781 C 186.824219 169.875 191.175781 172.425781 191.175781 173.625 C 191.175781 174.449219 189 175.875 188.476562 175.726562 C 188.023438 175.574219 188.023438 174.375 187.800781 173.550781 C 187.574219 172.5 186.824219 170.625 187.199219 169.800781 C 187.648438 169.199219 189.449219 168.601562 189.675781 168.898438 C 190.050781 169.273438 188.625 172.351562 187.875 173.324219 C 187.273438 174 186.601562 174.449219 185.925781 174.523438 C 185.398438 174.675781 184.648438 174.449219 184.273438 174.074219 C 183.824219 173.773438 183.523438 173.25 183.300781 172.648438 C 182.925781 171.601562 182.476562 168.675781 183 168.300781 C 183.375 168.074219 185.101562 168.824219 185.175781 169.351562 C 185.324219 169.800781 184.425781 170.925781 183.75 171.074219 C 182.851562 171.300781 180.75 170.550781 180.148438 169.574219 C 179.324219 168.375 179.699219 165.074219 180.226562 163.726562 C 180.675781 162.75 181.5 161.925781 182.25 161.699219 C 182.925781 161.550781 183.976562 161.925781 184.5 162.449219 C 184.949219 162.898438 185.25 163.648438 185.175781 164.625 C 185.023438 166.574219 182.398438 169.800781 181.273438 173.101562 C 179.773438 177.523438 179.175781 186.675781 177.523438 188.851562 C 176.851562 189.675781 176.101562 189.976562 175.425781 189.976562 C 174.898438 189.976562 174.148438 189.601562 173.851562 188.925781 C 173.324219 187.726562 174.074219 184.875 174.824219 182.25 C 176.023438 178.351562 179.550781 169.273438 181.273438 168.074219 C 181.800781 167.773438 182.25 167.851562 182.699219 168 C 183.148438 168.226562 183.675781 168.523438 183.976562 169.351562 C 184.949219 171.449219 185.773438 181.351562 184.648438 183.375 C 184.199219 184.199219 183.226562 184.574219 182.550781 184.5 C 181.875 184.425781 181.125 183.824219 180.75 182.925781 C 180.074219 181.050781 181.5 175.949219 182.023438 172.425781 C 182.550781 168.675781 183 162.898438 183.976562 161.023438 C 184.425781 160.351562 184.800781 159.976562 185.324219 159.824219 C 185.851562 159.675781 186.75 159.898438 187.125 160.273438 C 187.5 160.5 187.648438 160.800781 187.800781 161.476562 C 188.324219 163.648438 188.925781 174.523438 187.726562 176.550781 C 187.199219 177.375 186.300781 177.675781 185.699219 177.601562 C 185.101562 177.523438 184.425781 177 183.976562 176.101562 C 183.074219 174.074219 183.523438 166.800781 183.898438 163.875 C 184.125 162.148438 184.125 160.574219 184.949219 159.976562 C 185.699219 159.375 187.351562 159.226562 188.324219 159.898438 C 190.273438 161.25 191.550781 168 192.75 172.648438 C 194.101562 177.976562 196.648438 187.648438 195.675781 190.125 C 195.300781 191.023438 194.398438 191.550781 193.726562 191.476562 C 193.050781 191.476562 192.148438 190.800781 191.625 189.75 C 190.425781 187.050781 191.324219 177.898438 191.925781 172.5 C 192.375 167.699219 193.273438 160.800781 194.476562 158.925781 C 194.925781 158.25 195.375 157.949219 195.898438 157.875 C 196.5 157.875 197.550781 158.101562 197.851562 158.851562 C 199.050781 161.625 193.125 180.601562 190.949219 183.375 C 190.351562 184.199219 189.675781 184.425781 189.074219 184.425781 C 188.550781 184.425781 187.949219 184.050781 187.648438 183.523438 C 187.125 182.476562 187.574219 179.851562 187.800781 177.898438 C 188.175781 175.574219 188.699219 173.625 189.675781 170.625 C 191.324219 165.449219 195.375 152.398438 197.625 149.625 C 198.449219 148.726562 199.199219 148.351562 199.875 148.273438 C 200.476562 148.273438 201.074219 148.574219 201.375 148.949219 C 201.75 149.324219 201.898438 149.773438 202.050781 150.449219 C 202.425781 152.101562 202.425781 155.699219 202.273438 158.851562 C 202.125 163.125 202.351562 171.75 200.550781 173.625 C 199.726562 174.601562 198.074219 174.75 197.25 174.375 C 196.425781 174 195.976562 173.023438 195.675781 171.675781 C 194.925781 168.375 195.074219 156.074219 196.648438 153.523438 C 197.25 152.476562 198.375 151.949219 199.050781 152.101562 C 199.726562 152.25 200.625 153.300781 200.699219 154.273438 C 200.851562 155.925781 197.625 159.074219 196.726562 161.324219 C 195.898438 163.273438 195.449219 164.625 195.148438 167.101562 C 194.550781 171.449219 196.574219 182.625 195.601562 185.398438 C 195.226562 186.375 194.699219 186.898438 194.175781 187.125 C 193.648438 187.351562 192.976562 187.425781 192.449219 187.199219 C 191.773438 186.898438 191.25 186.226562 190.875 185.023438 C 189.601562 181.199219 191.398438 165.824219 191.023438 159.226562 C 190.800781 155.175781 189.601562 151.125 189.824219 149.25 C 189.898438 148.5 189.976562 148.050781 190.425781 147.675781 C 190.875 147.226562 191.851562 146.773438 192.449219 146.851562 C 193.199219 147 193.949219 147.675781 194.550781 148.648438 C 195.824219 150.824219 197.476562 158.476562 197.25 160.800781 C 197.101562 161.773438 196.875 162.449219 196.273438 162.824219 C 195.675781 163.273438 194.175781 163.351562 193.5 162.976562 C 192.898438 162.675781 192.523438 162 192.375 161.023438 C 192.074219 159 194.023438 152.175781 195.148438 150.601562 C 195.601562 149.925781 196.050781 149.773438 196.574219 149.625 C 197.101562 149.476562 197.773438 149.476562 198.226562 149.851562 C 198.824219 150.226562 199.351562 151.050781 199.5 152.25 C 199.800781 154.800781 196.875 160.726562 196.273438 165.375 C 195.601562 170.476562 197.101562 179.023438 196.125 181.574219 C 195.75 182.550781 195.226562 183.074219 194.625 183.300781 C 193.949219 183.523438 192.523438 183.074219 192 182.625 C 191.550781 182.25 191.398438 181.875 191.398438 181.050781 C 191.175781 177.898438 194.550781 163.199219 196.574219 158.25 C 197.625 155.625 198.523438 153.300781 199.949219 152.699219 C 201.074219 152.175781 202.800781 152.773438 203.851562 153.375 C 204.976562 153.976562 205.425781 154.800781 206.476562 156.226562 C 208.949219 159.375 217.351562 170.023438 217.425781 173.101562 C 217.425781 174.300781 216.601562 175.199219 215.925781 175.5 C 215.175781 175.800781 214.199219 175.574219 213.148438 174.976562 C 210.523438 173.476562 203.625 165.148438 202.574219 162.523438 C 202.125 161.550781 202.199219 160.875 202.425781 160.273438 C 202.574219 159.75 203.101562 159.226562 203.625 159.074219 C 204.300781 158.851562 205.199219 158.925781 206.324219 159.523438 C 208.800781 160.875 215.175781 167.773438 216.601562 170.625 C 217.351562 172.050781 217.875 172.949219 217.351562 174.148438 C 216.300781 176.625 207.824219 181.273438 205.199219 181.800781 C 204.074219 181.949219 203.101562 181.648438 202.574219 181.199219 C 202.125 180.898438 201.898438 180.226562 201.898438 179.699219 C 201.898438 179.175781 201.976562 178.726562 202.425781 178.050781 C 203.699219 176.25 210.449219 170.398438 212.851562 169.726562 C 213.898438 169.425781 214.949219 169.574219 215.476562 170.023438 C 216 170.550781 216.226562 171.976562 216.074219 172.574219 C 216 173.023438 215.851562 173.25 215.476562 173.550781 C 214.648438 174.074219 212.25 174.824219 210.976562 174.523438 C 209.851562 174.226562 208.800781 173.101562 208.199219 172.050781 C 207.523438 170.851562 207.074219 168.75 207.300781 167.625 C 207.523438 166.800781 208.050781 166.125 208.648438 165.824219 C 209.25 165.523438 210.300781 165.523438 210.898438 165.898438 C 211.425781 166.199219 211.949219 166.875 212.101562 167.773438 C 212.25 169.199219 211.125 173.25 210 174.148438 C 209.175781 174.75 207.675781 174.824219 207.074219 174.375 C 206.398438 173.925781 205.949219 172.351562 206.101562 171.601562 C 206.25 170.925781 207.148438 170.25 207.75 170.023438 C 208.199219 169.875 208.800781 169.875 209.25 170.101562 C 209.851562 170.398438 210.601562 171.148438 210.75 171.824219 C 210.898438 172.425781 210.523438 173.476562 210.148438 174 C 209.851562 174.375 209.324219 174.675781 208.800781 174.75 C 208.199219 174.824219 207.148438 174.523438 206.625 174 C 206.175781 173.550781 206.023438 172.726562 206.023438 171.824219 C 206.023438 170.550781 206.773438 168.148438 207.449219 167.023438 C 207.976562 166.351562 208.5 165.75 209.175781 165.601562 C 209.925781 165.523438 211.125 165.976562 211.726562 166.648438 C 212.324219 167.398438 211.875 169.726562 212.398438 170.023438 C 212.773438 170.25 213.375 169.425781 213.898438 169.425781 C 214.425781 169.425781 215.101562 169.648438 215.476562 170.023438 C 215.925781 170.550781 216.375 171.601562 216.074219 172.574219 C 215.324219 174.898438 207.75 181.125 205.199219 181.800781 C 204.148438 182.023438 203.101562 181.726562 202.574219 181.199219 C 202.050781 180.75 201.824219 179.699219 201.976562 179.101562 C 202.050781 178.574219 202.273438 178.199219 202.875 177.675781 C 204.148438 176.398438 208.875 173.175781 210.824219 172.949219 C 211.949219 172.875 213.300781 174.074219 213.449219 173.773438 C 213.824219 173.175781 203.625 165 202.574219 162.523438 C 202.125 161.625 202.199219 160.875 202.425781 160.273438 C 202.574219 159.75 203.101562 159.300781 203.625 159.074219 C 204.226562 158.851562 205.050781 158.851562 205.875 159.148438 C 207.074219 159.75 208.425781 161.476562 209.925781 163.199219 C 212.175781 165.675781 217.273438 170.925781 217.425781 173.101562 C 217.425781 174.148438 216.601562 175.199219 215.925781 175.5 C 215.175781 175.800781 214.050781 175.648438 213.148438 174.976562 C 211.199219 173.625 209.175781 167.476562 207.300781 164.625 C 205.875 162.523438 204.375 160.425781 203.175781 159.300781 C 202.425781 158.625 201.75 157.726562 201.074219 158.023438 C 199.050781 158.851562 198 178.273438 196.125 181.574219 C 195.449219 182.699219 194.773438 183.300781 194.023438 183.449219 C 193.425781 183.523438 192.449219 183.300781 192 182.625 C 190.726562 180.898438 191.398438 174 191.550781 169.800781 C 191.699219 165.824219 192.074219 161.699219 192.824219 158.175781 C 193.5 155.25 194.324219 151.273438 195.523438 150.148438 C 196.199219 149.550781 197.101562 149.398438 197.699219 149.625 C 198.375 149.851562 199.273438 150.601562 199.5 151.648438 C 200.023438 153.675781 198 160.273438 197.023438 161.925781 C 196.648438 162.601562 196.273438 162.976562 195.75 163.125 C 195.148438 163.351562 194.101562 163.273438 193.5 162.976562 C 193.050781 162.75 192.824219 162.375 192.449219 161.625 C 191.550781 159.601562 189.300781 151.648438 189.824219 149.25 C 190.050781 148.125 190.648438 147.300781 191.324219 147 C 191.925781 146.699219 193.050781 146.925781 193.574219 147.300781 C 194.023438 147.523438 194.25 147.976562 194.550781 148.648438 C 195.226562 150.523438 195.226562 154.949219 195.449219 159.226562 C 195.75 166.050781 196.875 181.949219 195.601562 185.398438 C 195.226562 186.449219 194.699219 186.898438 194.175781 187.125 C 193.648438 187.351562 192.976562 187.425781 192.449219 187.199219 C 191.851562 186.976562 191.25 186.300781 190.949219 185.550781 C 190.425781 184.574219 190.425781 183.300781 190.425781 181.425781 C 190.273438 177.523438 190.949219 167.101562 191.699219 163.273438 C 192.074219 161.476562 192.375 160.800781 192.976562 159.375 C 193.875 157.5 195.675781 154.199219 196.875 153.074219 C 197.476562 152.476562 198 152.101562 198.523438 152.023438 C 198.976562 152.023438 199.574219 152.175781 199.949219 152.476562 C 200.398438 153 200.773438 153.824219 200.925781 155.023438 C 201.300781 158.023438 200.925781 169.949219 199.273438 171 C 198.675781 171.449219 197.398438 171.074219 196.800781 170.25 C 195.148438 167.925781 196.648438 152.925781 197.476562 150.148438 C 197.699219 149.398438 197.925781 149.101562 198.375 148.800781 C 198.75 148.425781 199.425781 148.273438 199.875 148.273438 C 200.398438 148.351562 201.074219 148.574219 201.375 148.949219 C 201.75 149.324219 202.050781 149.699219 202.050781 150.449219 C 202.125 153.449219 195.226562 165.601562 193.351562 171.675781 C 192 176.101562 192.375 181.726562 190.949219 183.375 C 190.351562 184.199219 189.226562 184.574219 188.699219 184.351562 C 188.101562 184.125 187.574219 183.300781 187.425781 182.175781 C 187.050781 178.574219 192.601562 161.550781 194.476562 158.925781 C 195 158.175781 195.375 157.949219 195.898438 157.875 C 196.425781 157.800781 197.25 158.101562 197.625 158.476562 C 198 158.925781 198.074219 159.375 198.074219 160.199219 C 198.148438 162.449219 196.050781 168 195.601562 172.5 C 195.148438 177.824219 196.949219 187.648438 195.675781 190.125 C 195.226562 191.023438 194.398438 191.476562 193.726562 191.476562 C 193.125 191.550781 192.375 191.101562 191.773438 190.199219 C 190.273438 187.875 190.199219 178.726562 188.925781 173.773438 C 187.875 169.5 184.351562 162.601562 185.101562 162.074219 C 185.550781 161.773438 187.351562 162.75 187.949219 163.875 C 189.148438 166.050781 188.773438 174.074219 187.875 176.101562 C 187.5 177 186.824219 177.601562 186.148438 177.601562 C 185.476562 177.675781 184.5 177.074219 183.976562 176.101562 C 182.773438 173.851562 182.851562 163.949219 183.898438 161.550781 C 184.351562 160.5 185.175781 159.898438 185.851562 159.75 C 186.300781 159.675781 186.824219 159.898438 187.125 160.273438 C 187.5 160.574219 187.726562 161.023438 187.800781 161.925781 C 188.175781 165.074219 186.523438 180.75 184.648438 183.375 C 184.050781 184.199219 183.226562 184.574219 182.550781 184.5 C 181.875 184.425781 181.199219 183.824219 180.75 182.925781 C 179.699219 180.675781 179.550781 171 180.300781 169.125 C 180.523438 168.523438 180.824219 168.226562 181.273438 168.074219 C 181.800781 167.925781 183 168.074219 183.523438 168.523438 C 183.898438 168.898438 184.050781 169.351562 184.050781 170.25 C 183.976562 173.175781 179.324219 186.449219 177.523438 188.851562 C 176.925781 189.601562 176.550781 189.898438 175.949219 189.976562 C 175.273438 190.050781 174.226562 189.75 173.851562 188.925781 C 172.726562 186.675781 175.726562 176.175781 177.074219 171.449219 C 178.050781 168.148438 179.25 164.699219 180.449219 163.125 C 181.050781 162.375 181.648438 161.851562 182.25 161.699219 C 182.851562 161.550781 183.523438 161.773438 184.050781 162.074219 C 184.5 162.300781 184.875 162.75 185.101562 163.425781 C 185.476562 164.625 185.398438 168.601562 184.726562 168.898438 C 184.125 169.125 181.648438 166.574219 181.726562 165.824219 C 181.800781 165.226562 183.148438 164.550781 183.976562 164.550781 C 185.101562 164.625 187.125 165.75 187.800781 167.023438 C 188.625 168.449219 188.550781 172.050781 187.875 173.324219 C 187.5 174.074219 186.601562 174.523438 185.925781 174.523438 C 185.25 174.601562 184.273438 174.226562 183.824219 173.699219 C 183.375 173.175781 183.226562 172.273438 183.300781 171.449219 C 183.449219 170.25 184.351562 168.523438 185.101562 167.398438 C 185.851562 166.273438 186.675781 164.925781 187.726562 164.699219 C 188.773438 164.476562 190.5 164.851562 191.324219 165.898438 C 192.75 167.625 193.050781 174.523438 192.375 176.550781 C 192 177.449219 191.476562 178.199219 190.648438 178.273438 C 189.148438 178.425781 185.773438 174.375 183.824219 173.625 C 182.625 173.175781 181.425781 172.800781 180.75 173.175781 C 180.148438 173.476562 180.300781 174.75 179.773438 175.125 C 179.175781 175.574219 178.125 175.726562 177.523438 175.5 C 176.925781 175.273438 176.175781 174.523438 176.023438 173.851562 C 175.726562 173.101562 175.875 171.675781 176.398438 171.148438 C 176.851562 170.699219 178.351562 170.324219 178.875 170.773438 C 179.699219 171.375 179.925781 175.574219 179.324219 176.699219 C 179.023438 177.375 178.125 177.75 177.523438 177.824219 C 177 177.898438 176.398438 177.675781 176.023438 177.300781 C 175.574219 176.925781 175.125 176.023438 175.199219 175.425781 C 175.199219 174.75 175.949219 174.375 176.25 173.476562 C 176.925781 171.75 176.625 166.726562 177.675781 165.226562 C 178.351562 164.398438 179.550781 163.800781 180.226562 163.875 C 180.824219 163.949219 181.425781 164.550781 181.800781 165.226562 C 182.324219 166.351562 181.875 168.300781 182.398438 170.101562 C 183.226562 172.800781 186.449219 179.625 186.976562 179.476562 C 187.5 179.324219 186.601562 172.949219 186 170.851562 C 185.625 169.574219 184.574219 168.675781 184.5 167.851562 C 184.5 167.175781 184.800781 166.425781 185.25 166.050781 C 185.625 165.675781 186.523438 165.523438 187.050781 165.675781 C 187.574219 165.75 188.101562 166.199219 188.398438 166.875 C 189.074219 168.226562 188.851562 171.75 189.300781 173.625 C 189.675781 175.050781 190.050781 176.023438 190.726562 177.375 C 191.625 179.101562 192.976562 181.648438 194.25 183 C 195.226562 184.050781 196.425781 185.476562 197.175781 185.324219 C 197.851562 185.25 198.675781 184.199219 198.75 183.449219 C 198.898438 182.476562 198.074219 181.5 197.324219 180 C 195.675781 176.851562 190.875 168.675781 188.625 165.824219 C 187.5 164.398438 186.523438 162.976562 185.699219 163.050781 C 185.023438 163.050781 184.199219 164.101562 183.976562 164.851562 C 183.675781 165.523438 183.976562 166.273438 184.050781 167.175781 C 184.199219 168.449219 184.199219 170.398438 184.726562 171.75 C 185.324219 173.175781 186.375 174.976562 187.5 175.5 C 188.550781 176.023438 190.125 175.5 191.25 175.199219 C 192.148438 174.976562 192.75 174.601562 193.574219 174 C 194.699219 173.175781 196.425781 171.523438 197.101562 170.398438 C 197.625 169.648438 198 168.976562 197.925781 168.148438 C 197.851562 167.023438 196.125 164.101562 195.976562 164.101562 C 195.75 164.175781 196.125 167.25 196.949219 168.824219 C 198 170.925781 200.398438 173.175781 202.425781 175.199219 C 204.523438 177.226562 207.375 179.625 209.25 180.898438 C 210.375 181.726562 211.199219 182.25 212.175781 182.550781 C 213.148438 182.925781 214.800781 183.449219 215.023438 183 C 215.550781 182.101562 208.050781 174.601562 205.199219 171.75 C 203.324219 169.800781 202.125 168.601562 199.949219 167.175781 C 197.324219 165.375 193.125 162.824219 190.425781 162.226562 C 188.625 161.773438 187.050781 161.476562 185.625 162.300781 C 183.75 163.5 181.800781 167.699219 181.050781 170.175781 C 180.523438 172.125 180.601562 174.300781 180.976562 175.800781 C 181.199219 176.925781 181.351562 177.898438 182.324219 178.648438 C 184.273438 180.226562 192.898438 180 194.550781 181.574219 C 195.300781 182.25 195.601562 183.300781 195.375 183.976562 C 195.148438 184.648438 192.898438 185.476562 192.898438 185.476562 " clip-rule="nonzero"/></clipPath><clipPath id="54e3b782ad"><path d="M 307.386719 147.527344 L 350.546875 147.527344 L 350.546875 193.351562 L 307.386719 193.351562 Z M 307.386719 147.527344 " clip-rule="nonzero"/></clipPath><clipPath id="84da161f72"><path d="M 312.675781 171.074219 C 313.875 162.675781 314.625 162.300781 315.300781 162.300781 C 315.898438 162.226562 316.800781 162.675781 317.25 163.125 C 317.625 163.5 317.851562 164.023438 317.773438 164.699219 C 317.625 165.976562 315.75 169.050781 314.550781 170.324219 C 313.726562 171.148438 312.898438 171.824219 312 171.976562 C 311.25 172.125 310.273438 171.75 309.675781 171.300781 C 309 170.851562 308.324219 169.949219 308.175781 169.125 C 307.949219 168.300781 308.101562 167.023438 308.550781 166.425781 C 309 165.898438 310.050781 165.601562 310.726562 165.675781 C 311.398438 165.824219 312.074219 166.273438 312.523438 167.023438 C 313.273438 168.375 313.425781 172.351562 313.125 173.773438 C 312.976562 174.523438 312.675781 174.976562 312.226562 175.351562 C 311.851562 175.648438 311.175781 175.875 310.574219 175.875 C 310.050781 175.875 309.375 175.726562 309 175.199219 C 308.324219 174.523438 307.875 172.726562 307.800781 171.449219 C 307.726562 170.101562 307.800781 168.226562 308.324219 167.398438 C 308.699219 166.875 309.375 166.648438 309.898438 166.574219 C 310.574219 166.574219 311.550781 166.726562 312.074219 167.398438 C 313.199219 168.824219 311.851562 176.625 312.976562 176.925781 C 314.625 177.226562 321.148438 159.523438 323.851562 157.199219 C 324.824219 156.449219 325.648438 156.226562 326.324219 156.449219 C 326.925781 156.601562 327.375 157.273438 327.675781 158.25 C 328.574219 161.101562 329.023438 173.925781 327.449219 175.875 C 326.925781 176.550781 325.800781 176.625 325.199219 176.398438 C 324.601562 176.175781 324.074219 175.574219 323.851562 174.449219 C 323.023438 171 326.324219 153.523438 327.601562 150.375 C 327.898438 149.550781 328.125 149.175781 328.574219 148.949219 C 329.101562 148.726562 329.925781 148.726562 330.375 148.949219 C 330.824219 149.175781 331.273438 149.851562 331.351562 150.449219 C 331.574219 151.273438 331.125 152.398438 330.824219 153.601562 C 330.375 155.398438 329.476562 157.949219 328.574219 160.050781 C 327.601562 162.148438 326.25 165.300781 325.199219 166.050781 C 324.675781 166.351562 324.148438 166.351562 323.773438 166.199219 C 323.25 166.050781 322.726562 165.675781 322.351562 165 C 321.449219 163.351562 320.25 156.898438 321.148438 155.324219 C 321.601562 154.425781 322.949219 153.976562 323.625 154.125 C 324.300781 154.273438 324.976562 155.101562 325.125 156 C 325.5 157.648438 323.625 160.800781 323.175781 163.5 C 322.574219 166.574219 323.25 171.75 322.125 173.476562 C 321.601562 174.449219 320.550781 175.050781 319.875 174.976562 C 319.199219 174.824219 318.449219 173.925781 318.148438 172.800781 C 317.398438 170.398438 318.449219 161.550781 319.648438 159.449219 C 320.175781 158.550781 320.925781 158.023438 321.601562 158.023438 C 322.273438 158.023438 323.175781 158.398438 323.625 159.375 C 325.050781 162.226562 324 179.175781 322.125 181.351562 C 321.523438 182.023438 320.476562 182.023438 319.949219 181.800781 C 319.351562 181.5 318.824219 180.898438 318.675781 179.851562 C 318.375 176.476562 325.875 160.648438 327.675781 157.5 C 328.199219 156.601562 328.425781 156.148438 328.949219 155.925781 C 329.550781 155.699219 330.601562 155.699219 331.125 156.300781 C 332.175781 157.425781 331.648438 161.925781 331.574219 165.449219 C 331.574219 170.398438 332.101562 181.351562 330.523438 183.226562 C 329.925781 183.898438 328.875 183.898438 328.351562 183.675781 C 327.75 183.449219 327.375 182.925781 327.074219 181.875 C 326.023438 177.75 327.523438 153.523438 329.25 149.476562 C 329.699219 148.351562 330.375 147.824219 330.898438 147.675781 C 331.351562 147.523438 331.875 147.75 332.175781 147.976562 C 332.550781 148.351562 332.851562 148.800781 333 149.550781 C 333.375 151.574219 333.300781 159.300781 332.101562 160.648438 C 331.5 161.25 330.375 161.324219 329.773438 161.023438 C 329.25 160.726562 329.023438 159.074219 328.648438 159 C 328.351562 159 328.125 159.976562 327.675781 160.050781 C 327.226562 160.199219 326.25 160.050781 325.726562 159.449219 C 324.675781 158.324219 323.398438 151.949219 324.148438 151.273438 C 324.601562 150.824219 326.324219 151.199219 326.699219 152.023438 C 327.675781 153.824219 323.023438 163.726562 321.601562 166.648438 C 320.851562 168.074219 319.5 169.425781 319.648438 169.574219 C 319.726562 169.648438 321.226562 168.449219 321.226562 168.449219 C 321.226562 168.523438 320.25 169.648438 319.648438 169.800781 C 319.050781 169.949219 318.148438 169.648438 317.625 169.273438 C 317.25 168.976562 317.023438 168.449219 316.949219 167.925781 C 316.800781 167.101562 316.949219 165.976562 317.175781 164.773438 C 317.476562 163.125 317.851562 159.898438 318.898438 159 C 319.5 158.398438 320.773438 158.25 321.449219 158.476562 C 322.050781 158.699219 322.425781 159.148438 322.800781 160.125 C 324.148438 163.726562 322.351562 188.550781 323.324219 188.625 C 324.074219 188.699219 325.351562 172.425781 327.074219 169.800781 C 327.601562 168.898438 328.273438 168.449219 328.949219 168.449219 C 329.625 168.449219 330.449219 168.824219 330.898438 169.726562 C 332.25 172.5 331.050781 188.398438 329.476562 191.25 C 329.023438 192.226562 328.273438 192.675781 327.675781 192.75 C 327.074219 192.824219 326.25 192.375 325.875 191.925781 C 325.574219 191.550781 325.5 191.25 325.425781 190.5 C 325.273438 188.175781 327.375 175.425781 327.449219 175.425781 C 327.449219 175.425781 327.523438 183.824219 326.324219 185.398438 C 325.726562 186.226562 324.601562 186.523438 323.925781 186.449219 C 323.398438 186.449219 322.875 186 322.5 185.625 C 322.199219 185.175781 322.050781 184.648438 322.050781 184.050781 C 322.050781 183 322.425781 181.648438 323.175781 179.851562 C 324.75 176.023438 330.226562 163.800781 333 162.375 C 333.976562 161.773438 335.324219 162.074219 335.851562 162.523438 C 336.300781 162.976562 335.925781 164.175781 336.226562 165 C 336.601562 165.898438 337.648438 166.574219 338.101562 167.699219 C 338.699219 169.425781 339.300781 172.949219 339.074219 174.375 C 339 175.050781 338.699219 175.5 338.324219 175.800781 C 337.949219 176.175781 337.351562 176.398438 336.824219 176.398438 C 336.300781 176.398438 335.699219 176.175781 335.324219 175.800781 C 334.949219 175.5 334.726562 175.125 334.574219 174.375 C 334.199219 172.425781 334.648438 164.773438 335.699219 162.675781 C 336.226562 161.773438 337.050781 161.175781 337.726562 161.101562 C 338.175781 160.949219 338.851562 161.175781 339.226562 161.476562 C 339.675781 161.773438 339.976562 162.074219 340.125 162.824219 C 340.648438 165.226562 339.300781 176.324219 338.101562 178.800781 C 337.726562 179.773438 337.199219 180.226562 336.601562 180.449219 C 336.148438 180.675781 335.476562 180.675781 334.949219 180.449219 C 334.351562 180.148438 333.675781 179.476562 333.523438 178.726562 C 333.226562 177.75 333.675781 176.625 334.199219 174.976562 C 335.25 171.523438 339.226562 160.574219 341.324219 159.226562 C 342 158.699219 342.824219 158.925781 343.351562 159.148438 C 343.800781 159.375 344.101562 159.675781 344.398438 160.273438 C 345.148438 162 346.199219 168.824219 345.75 170.925781 C 345.449219 171.976562 344.925781 172.875 344.25 173.101562 C 343.574219 173.324219 342.226562 172.949219 341.773438 172.5 C 341.324219 172.125 341.25 171.675781 341.175781 171 C 341.023438 169.648438 341.550781 166.199219 342.300781 164.625 C 342.824219 163.5 343.648438 162.375 344.398438 162.148438 C 345.148438 162 346.273438 162.449219 346.875 163.125 C 347.773438 164.023438 348.824219 167.476562 348.449219 167.773438 C 348.226562 168 346.949219 167.25 346.949219 167.101562 C 347.023438 166.949219 348.148438 166.875 348.675781 167.023438 C 349.199219 167.175781 349.800781 167.476562 350.023438 168 C 350.324219 168.675781 350.324219 169.949219 349.875 170.773438 C 349.425781 171.75 348.226562 172.425781 346.800781 173.324219 C 344.023438 174.976562 336.675781 179.175781 334.125 178.574219 C 332.699219 178.199219 331.875 176.851562 331.425781 175.5 C 330.75 173.699219 330.824219 170.101562 331.351562 168.601562 C 331.648438 167.773438 332.25 167.175781 332.851562 166.875 C 333.375 166.648438 334.050781 166.648438 334.574219 166.875 C 335.175781 167.175781 335.851562 167.773438 336.148438 168.601562 C 336.601562 169.949219 336.300781 173.324219 335.625 174.75 C 335.175781 175.726562 334.351562 176.699219 333.601562 176.851562 C 332.925781 177 331.875 176.625 331.425781 176.101562 C 330.976562 175.648438 330.675781 174.523438 330.824219 173.925781 C 330.976562 173.25 331.726562 172.425781 332.324219 172.125 C 333 171.898438 334.050781 172.050781 334.648438 172.425781 C 335.175781 172.800781 335.699219 173.773438 335.699219 174.449219 C 335.625 175.273438 334.5 176.476562 333.824219 176.773438 C 333.375 177 332.773438 176.925781 332.25 176.699219 C 331.726562 176.398438 331.050781 175.800781 330.824219 174.976562 C 330.375 173.550781 330.75 170.023438 331.351562 168.601562 C 331.726562 167.773438 332.25 167.175781 332.851562 166.875 C 333.375 166.648438 334.125 166.726562 334.574219 166.875 C 335.101562 167.101562 335.625 167.398438 335.925781 168.074219 C 336.523438 169.273438 337.050781 174.226562 336.300781 174.898438 C 335.773438 175.273438 333.675781 174.449219 333.675781 174.074219 C 333.601562 173.101562 342.523438 170.324219 344.773438 168.898438 C 345.824219 168.226562 346.125 167.324219 346.949219 167.101562 C 347.773438 166.875 349.125 167.101562 349.648438 167.550781 C 350.175781 168 350.476562 169.050781 350.324219 169.648438 C 350.25 170.324219 349.574219 171.074219 348.976562 171.449219 C 348.375 171.824219 347.476562 172.050781 346.726562 171.824219 C 345.75 171.601562 344.625 170.625 343.949219 169.5 C 343.125 168.226562 342.300781 165.449219 342.675781 164.101562 C 342.898438 163.199219 343.726562 162.375 344.398438 162.148438 C 345.074219 162 346.050781 162.300781 346.5 162.75 C 346.949219 163.050781 347.175781 163.5 347.25 164.175781 C 347.476562 165.675781 346.5 169.949219 345.675781 171.523438 C 345.148438 172.425781 344.398438 173.101562 343.726562 173.25 C 343.125 173.324219 342.226562 172.949219 341.773438 172.5 C 341.324219 172.125 341.175781 171.601562 340.949219 170.773438 C 340.425781 168.824219 339.75 162.074219 340.351562 160.351562 C 340.574219 159.75 340.875 159.375 341.324219 159.226562 C 341.925781 158.925781 343.273438 159 343.800781 159.449219 C 344.324219 159.898438 344.476562 160.648438 344.398438 161.851562 C 344.25 165 339.523438 177.074219 337.949219 179.324219 C 337.425781 180.074219 337.125 180.300781 336.601562 180.449219 C 336.148438 180.601562 335.476562 180.675781 334.949219 180.449219 C 334.351562 180.148438 333.75 179.398438 333.523438 178.726562 C 333.226562 178.050781 333.449219 177.375 333.523438 176.175781 C 333.75 173.476562 334.875 164.773438 335.699219 162.675781 C 336 162 336.226562 161.699219 336.675781 161.398438 C 337.125 161.175781 337.726562 160.949219 338.25 161.101562 C 338.851562 161.25 339.75 161.851562 340.125 162.824219 C 340.949219 165 340.125 172.875 338.925781 174.898438 C 338.398438 175.800781 337.574219 176.398438 336.824219 176.398438 C 336.148438 176.398438 335.324219 175.875 334.726562 174.976562 C 333.375 172.949219 331.949219 164.773438 332.324219 163.125 C 332.476562 162.675781 332.625 162.523438 333 162.375 C 333.523438 162.074219 334.875 161.851562 335.398438 162.226562 C 336 162.601562 336.449219 163.351562 336.449219 164.476562 C 336.300781 167.476562 329.101562 177.675781 327.523438 181.425781 C 326.851562 183.148438 327 184.574219 326.324219 185.398438 C 325.875 186 325.125 186.523438 324.449219 186.523438 C 323.773438 186.523438 322.648438 185.925781 322.273438 185.101562 C 321.601562 183.824219 322.425781 180.375 322.574219 178.648438 C 322.726562 177.523438 322.574219 176.773438 323.023438 175.726562 C 323.625 174.226562 325.425781 171.449219 326.925781 170.925781 C 328.125 170.550781 330.074219 170.851562 330.898438 171.824219 C 332.175781 173.398438 331.5 178.5 331.199219 181.800781 C 330.898438 185.101562 330.523438 190.199219 329.324219 191.699219 C 328.726562 192.449219 327.75 192.824219 327.148438 192.675781 C 326.476562 192.523438 325.800781 191.699219 325.425781 190.5 C 324.449219 187.273438 325.5 173.324219 326.925781 170.25 C 327.449219 169.199219 328.273438 168.523438 328.949219 168.449219 C 329.550781 168.375 330.523438 169.050781 330.898438 169.726562 C 331.351562 170.550781 330.976562 171.824219 330.675781 173.476562 C 330.148438 176.851562 327.976562 185.175781 326.398438 188.699219 C 325.425781 190.726562 324.523438 192.898438 323.324219 193.199219 C 322.199219 193.5 320.25 192.300781 319.425781 191.175781 C 318.523438 189.824219 318.75 188.023438 318.523438 185.476562 C 318.074219 180.074219 317.324219 163.050781 318.300781 159.976562 C 318.601562 159.148438 318.898438 158.925781 319.273438 158.625 C 319.726562 158.398438 320.398438 158.175781 320.851562 158.324219 C 321.523438 158.476562 322.5 159.148438 322.800781 160.125 C 323.324219 161.851562 322.273438 167.625 320.925781 168.898438 C 320.25 169.648438 318.75 169.800781 318.074219 169.574219 C 317.625 169.425781 317.25 168.898438 317.023438 168.449219 C 316.875 167.851562 316.949219 167.398438 317.101562 166.425781 C 317.625 163.800781 320.25 154.949219 322.125 151.800781 C 323.25 150.074219 324.375 148.425781 325.574219 148.199219 C 326.550781 148.050781 327.898438 148.875 328.574219 149.851562 C 329.476562 151.199219 329.324219 154.800781 329.25 156.601562 C 329.175781 157.800781 329.25 159.074219 328.648438 159.601562 C 328.273438 160.050781 327.226562 160.125 326.625 160.050781 C 326.175781 159.898438 325.648438 159.449219 325.351562 159.074219 C 325.125 158.625 324.976562 158.023438 325.050781 157.5 C 325.199219 156.976562 325.574219 156.449219 325.949219 156 C 326.476562 155.476562 327.300781 154.726562 328.125 154.5 C 329.023438 154.199219 330.675781 154.050781 331.425781 154.574219 C 332.175781 155.023438 332.550781 156.148438 332.699219 157.050781 C 332.851562 158.101562 332.625 159.976562 332.101562 160.648438 C 331.648438 161.101562 330.824219 161.324219 330.226562 161.175781 C 329.625 161.023438 328.949219 160.425781 328.648438 159.523438 C 327.898438 157.574219 328.425781 150.824219 329.324219 149.023438 C 329.699219 148.199219 330.375 147.75 330.898438 147.675781 C 331.425781 147.601562 332.175781 147.976562 332.550781 148.351562 C 332.851562 148.648438 332.851562 148.875 333 149.550781 C 333.449219 153.148438 332.925781 180.375 330.523438 183.226562 C 329.851562 183.898438 328.875 183.898438 328.351562 183.675781 C 327.75 183.449219 327.375 182.925781 327.074219 181.875 C 326.101562 178.351562 326.625 159.75 328.050781 156.898438 C 328.425781 156.148438 328.875 155.925781 329.398438 155.773438 C 329.925781 155.699219 330.75 155.851562 331.125 156.300781 C 331.5 156.675781 331.648438 157.351562 331.574219 158.398438 C 331.199219 162 324.523438 179.101562 322.125 181.351562 C 321.523438 181.949219 320.925781 182.023438 320.398438 181.949219 C 319.800781 181.800781 319.125 181.273438 318.75 180.300781 C 317.550781 177.449219 318.148438 163.050781 319.5 159.976562 C 320.101562 158.851562 320.925781 158.101562 321.601562 158.023438 C 322.273438 157.949219 323.25 158.476562 323.625 159.375 C 324.675781 161.476562 323.550781 171.300781 322.125 173.476562 C 321.523438 174.449219 320.550781 175.050781 319.875 174.976562 C 319.199219 174.824219 318.449219 173.925781 318.148438 172.800781 C 317.398438 170.25 319.050781 161.773438 319.800781 158.699219 C 320.175781 157.125 320.476562 156.074219 321.148438 155.324219 C 321.675781 154.648438 322.5 153.976562 323.175781 154.050781 C 323.773438 154.050781 324.601562 154.648438 325.050781 155.476562 C 326.023438 157.199219 326.625 163.425781 326.101562 165 C 325.949219 165.601562 325.648438 165.898438 325.199219 166.050781 C 324.601562 166.273438 323.324219 166.199219 322.875 165.75 C 322.425781 165.375 322.199219 164.398438 322.351562 163.574219 C 322.5 162.226562 324.074219 160.726562 324.824219 158.851562 C 325.949219 156.300781 326.476562 150.824219 327.898438 149.550781 C 328.648438 148.875 329.773438 148.726562 330.375 148.949219 C 330.898438 149.175781 331.199219 149.851562 331.351562 150.898438 C 331.949219 154.5 329.699219 173.398438 327.449219 175.875 C 326.773438 176.550781 325.800781 176.625 325.199219 176.398438 C 324.601562 176.175781 324.148438 175.5 323.851562 174.449219 C 322.949219 171.675781 322.351562 159.675781 323.851562 157.425781 C 324.449219 156.523438 325.648438 156.300781 326.324219 156.449219 C 326.773438 156.449219 327.226562 156.898438 327.449219 157.351562 C 327.675781 157.800781 327.675781 158.324219 327.449219 159.226562 C 326.925781 161.625 323.101562 168.824219 321 172.351562 C 319.5 174.898438 317.925781 177.148438 316.574219 178.648438 C 315.675781 179.625 315 180.300781 314.175781 180.824219 C 313.351562 181.273438 312.449219 181.726562 311.550781 181.648438 C 310.726562 181.574219 309.601562 180.976562 309.074219 180.300781 C 308.476562 179.625 308.324219 178.800781 308.101562 177.675781 C 307.726562 175.726562 307.199219 171 307.726562 169.125 C 308.023438 168 308.699219 167.101562 309.300781 166.726562 C 309.824219 166.5 310.574219 166.5 311.101562 166.726562 C 311.625 166.949219 312.148438 167.25 312.449219 167.925781 C 313.050781 169.050781 313.5 172.425781 313.125 173.773438 C 312.898438 174.675781 312.375 175.351562 311.773438 175.648438 C 311.175781 175.949219 310.050781 175.875 309.449219 175.574219 C 308.925781 175.351562 308.625 174.898438 308.324219 174.226562 C 307.800781 172.800781 307.5 168.226562 308.25 166.875 C 308.625 166.125 309.449219 165.675781 310.125 165.675781 C 310.875 165.675781 312.601562 166.800781 312.523438 167.023438 C 312.523438 167.175781 311.476562 167.398438 311.398438 167.25 C 311.101562 166.800781 313.648438 162.898438 314.699219 162.375 C 315.300781 162.148438 315.898438 162.300781 316.351562 162.449219 C 316.800781 162.675781 317.324219 162.976562 317.550781 163.574219 C 318.074219 165.148438 317.625 171.148438 316.875 172.574219 C 316.5 173.175781 315.976562 173.398438 315.523438 173.550781 C 315 173.625 314.324219 173.625 313.875 173.324219 C 313.351562 172.949219 312.675781 171.074219 312.675781 171.074219 " clip-rule="nonzero"/></clipPath><clipPath id="0d6cc2dd48"><path d="M 188.5 171.964844 L 192.761719 171.964844 L 192.761719 175.574219 L 188.5 175.574219 Z M 188.5 171.964844 " clip-rule="nonzero"/></clipPath><clipPath id="4370085d45"><path d="M 192.75 173.25 C 190.875 176.25 189.074219 175.726562 188.699219 175.050781 C 188.324219 174.449219 188.625 172.574219 189.226562 172.125 C 189.824219 171.675781 192.226562 172.351562 192.226562 172.351562 " clip-rule="nonzero"/></clipPath><clipPath id="c7cf679d41"><path d="M 173 139.074219 L 219 139.074219 L 219 193 L 173 193 Z M 173 139.074219 " clip-rule="nonzero"/></clipPath><clipPath id="b1c4e92c0e"><path d="M 303.527344 148.25 L 348.527344 148.25 L 348.527344 193.25 L 303.527344 193.25 Z M 303.527344 148.25 " clip-rule="nonzero"/></clipPath></defs><g fill="#ffd700" fill-opacity="1"><g transform="translate(9.071537, 279.329333)"><g><path d="M 173.953125 0 L 51.15625 0 C 43.65625 0 36.789062 -1.832031 30.5625 -5.5 C 24.34375 -9.164062 19.398438 -14.109375 15.734375 -20.328125 C 12.066406 -26.554688 10.234375 -33.425781 10.234375 -40.9375 L 10.234375 -81.859375 L 51.15625 -81.859375 L 51.15625 -40.9375 L 173.953125 -40.9375 L 173.953125 -163.71875 L 92.09375 -163.71875 L 92.09375 -204.65625 L 214.875 -204.65625 L 214.875 -40.9375 C 214.875 -33.601562 213.039062 -26.820312 209.375 -20.59375 C 205.707031 -14.363281 200.804688 -9.375 194.671875 -5.625 C 188.535156 -1.875 181.628906 0 173.953125 0 Z M 173.953125 0 "/></g></g></g><g fill="#125273" fill-opacity="1"><g transform="translate(0.0000045, 272.241877)"><g><path d="M 173.953125 0 L 51.15625 0 C 43.65625 0 36.789062 -1.832031 30.5625 -5.5 C 24.34375 -9.164062 19.398438 -14.109375 15.734375 -20.328125 C 12.066406 -26.554688 10.234375 -33.425781 10.234375 -40.9375 L 10.234375 -81.859375 L 51.15625 -81.859375 L 51.15625 -40.9375 L 173.953125 -40.9375 L 173.953125 -163.71875 L 92.09375 -163.71875 L 92.09375 -204.65625 L 214.875 -204.65625 L 214.875 -40.9375 C 214.875 -33.601562 213.039062 -26.820312 209.375 -20.59375 C 205.707031 -14.363281 200.804688 -9.375 194.671875 -5.625 C 188.535156 -1.875 181.628906 0 173.953125 0 Z M 173.953125 0 "/></g></g></g><g clip-path="url(#f4bc68cd3c)"><path fill="#ffd700" d="M 348.394531 170.683594 C 331.570312 173.78125 329.058594 176.292969 325.960938 193.117188 C 322.863281 176.292969 320.355469 173.78125 303.527344 170.683594 C 320.355469 167.585938 322.863281 165.074219 325.960938 148.25 C 329.058594 165.074219 331.570312 167.585938 348.394531 170.683594 Z M 348.394531 170.683594 " fill-opacity="1" fill-rule="nonzero"/></g><g clip-path="url(#d2f2879c61)"><path fill="#47423e" d="M 161.492188 196.9375 C 154.082031 205.546875 143.101562 211.007812 130.863281 211.007812 C 108.546875 211.007812 90.394531 192.851562 90.394531 170.539062 C 90.394531 148.222656 108.546875 130.070312 130.863281 130.070312 C 143.101562 130.070312 154.082031 135.53125 161.492188 144.140625 C 162.164062 144.902344 162.78125 145.675781 163.382812 146.480469 C 163.980469 145.675781 164.597656 144.902344 165.269531 144.140625 C 164.683594 143.363281 164.054688 142.601562 163.382812 141.855469 C 155.445312 132.835938 143.804688 127.140625 130.863281 127.140625 C 106.9375 127.140625 87.464844 146.613281 87.464844 170.539062 C 87.464844 194.460938 106.9375 213.9375 130.863281 213.9375 C 143.804688 213.9375 155.445312 208.238281 163.382812 199.222656 C 164.054688 198.472656 164.683594 197.714844 165.269531 196.9375 C 164.597656 196.175781 163.980469 195.398438 163.382812 194.59375 C 162.78125 195.398438 162.164062 196.175781 161.492188 196.9375 Z M 161.492188 196.9375 " fill-opacity="1" fill-rule="nonzero"/></g><g clip-path="url(#53cbe0da32)"><path fill="#47423e" d="M 227.703125 195.515625 C 227.101562 196.308594 226.457031 197.070312 225.785156 197.800781 C 218.390625 205.914062 207.730469 211.007812 195.898438 211.007812 C 183.660156 211.007812 172.679688 205.546875 165.269531 196.9375 C 164.597656 196.175781 163.980469 195.398438 163.382812 194.59375 C 162.78125 195.398438 162.164062 196.175781 161.492188 196.9375 C 162.078125 197.714844 162.707031 198.472656 163.382812 199.222656 C 171.316406 208.238281 182.957031 213.9375 195.898438 213.9375 C 208.460938 213.9375 219.78125 208.578125 227.703125 200.027344 C 228.375 199.308594 229.019531 198.578125 229.632812 197.816406 C 228.960938 197.070312 228.300781 196.308594 227.703125 195.515625 Z M 165.269531 144.140625 C 172.679688 135.53125 183.660156 130.070312 195.898438 130.070312 C 207.730469 130.070312 218.390625 135.164062 225.785156 143.277344 C 226.457031 144.007812 227.101562 144.769531 227.703125 145.558594 C 228.300781 144.769531 228.945312 144.007812 229.621094 143.277344 C 229.019531 142.515625 228.375 141.769531 227.703125 141.050781 C 219.78125 132.5 208.449219 127.140625 195.898438 127.140625 C 182.957031 127.140625 171.316406 132.835938 163.382812 141.855469 C 162.707031 142.601562 162.078125 143.363281 161.492188 144.140625 C 162.164062 144.902344 162.78125 145.675781 163.382812 146.480469 C 163.980469 145.675781 164.597656 144.902344 165.269531 144.140625 Z M 165.269531 144.140625 " fill-opacity="1" fill-rule="nonzero"/></g><g clip-path="url(#d0a9bebf7a)"><path fill="#47423e" d="M 259.503906 127.140625 C 246.953125 127.140625 235.621094 132.5 227.703125 141.050781 C 227.027344 141.769531 226.382812 142.515625 225.785156 143.277344 C 226.457031 144.007812 227.101562 144.769531 227.703125 145.558594 C 228.300781 144.769531 228.945312 144.007812 229.621094 143.277344 C 237.011719 135.164062 247.671875 130.070312 259.503906 130.070312 C 281.816406 130.070312 299.972656 148.222656 299.972656 170.539062 C 299.972656 192.851562 281.816406 211.007812 259.503906 211.007812 C 247.6875 211.007812 237.027344 205.914062 229.632812 197.816406 C 228.960938 197.070312 228.300781 196.308594 227.703125 195.515625 C 227.101562 196.308594 226.457031 197.070312 225.785156 197.800781 C 226.382812 198.5625 227.027344 199.308594 227.703125 200.027344 C 235.621094 208.578125 246.953125 213.9375 259.503906 213.9375 C 283.441406 213.9375 302.898438 194.460938 302.898438 170.539062 C 302.898438 146.613281 283.425781 127.140625 259.503906 127.140625 Z M 259.503906 127.140625 " fill-opacity="1" fill-rule="nonzero"/></g><path fill="#ffffff" d="M 299.972656 170.539062 C 299.972656 192.851562 281.816406 211.007812 259.503906 211.007812 C 247.6875 211.007812 237.027344 205.914062 229.632812 197.816406 C 228.960938 197.070312 228.300781 196.308594 227.703125 195.515625 C 227.101562 196.308594 226.457031 197.070312 225.785156 197.800781 C 218.390625 205.914062 207.730469 211.007812 195.898438 211.007812 C 183.660156 211.007812 172.679688 205.546875 165.269531 196.9375 C 164.597656 196.175781 163.980469 195.398438 163.382812 194.59375 C 162.78125 195.398438 162.164062 196.175781 161.492188 196.9375 C 154.082031 205.546875 143.101562 211.007812 130.863281 211.007812 C 108.546875 211.007812 90.394531 192.851562 90.394531 170.539062 C 90.394531 148.222656 108.546875 130.070312 130.863281 130.070312 C 143.101562 130.070312 154.082031 135.53125 161.492188 144.140625 C 162.164062 144.902344 162.78125 145.675781 163.382812 146.480469 C 163.980469 145.675781 164.597656 144.902344 165.269531 144.140625 C 172.679688 135.53125 183.660156 130.070312 195.898438 130.070312 C 207.730469 130.070312 218.390625 135.164062 225.785156 143.277344 C 226.457031 144.007812 227.101562 144.769531 227.703125 145.558594 C 228.300781 144.769531 228.945312 144.007812 229.621094 143.277344 C 237.011719 135.164062 247.671875 130.070312 259.503906 130.070312 C 281.816406 130.070312 299.972656 148.222656 299.972656 170.539062 Z M 299.972656 170.539062 " fill-opacity="1" fill-rule="nonzero"/><path fill="#125273" d="M 323.441406 128.605469 C 310.632812 128.605469 299.152344 134.359375 291.464844 143.40625 C 297.671875 150.714844 301.4375 160.1875 301.4375 170.539062 C 301.4375 180.890625 297.6875 190.347656 291.464844 197.667969 C 299.152344 206.730469 310.632812 212.472656 323.441406 212.472656 C 346.605469 212.472656 365.375 193.699219 365.375 170.539062 C 365.375 147.375 346.605469 128.605469 323.441406 128.605469 Z M 323.441406 128.605469 " fill-opacity="1" fill-rule="nonzero"/><g clip-path="url(#0dbf86c67b)"><path fill="#47423e" d="M 323.441406 213.9375 C 310.675781 213.9375 298.625 208.355469 290.351562 198.621094 L 290 198.210938 L 290 197.128906 L 290.351562 196.71875 C 296.558594 189.410156 299.972656 180.113281 299.972656 170.539062 C 299.972656 160.960938 296.558594 151.664062 290.351562 144.359375 L 289.546875 143.40625 L 290.351562 142.457031 C 298.625 132.71875 310.691406 127.140625 323.441406 127.140625 C 347.367188 127.140625 366.839844 146.613281 366.839844 170.539062 C 366.839844 194.460938 347.382812 213.9375 323.441406 213.9375 Z M 293.398438 197.640625 C 301.070312 206.144531 311.964844 211.007812 323.457031 211.007812 C 345.769531 211.007812 363.925781 192.851562 363.925781 170.539062 C 363.925781 148.222656 345.757812 130.070312 323.441406 130.070312 C 311.949219 130.070312 301.070312 134.929688 293.382812 143.4375 C 299.53125 151.109375 302.898438 160.683594 302.898438 170.539062 C 302.898438 180.390625 299.53125 189.953125 293.398438 197.640625 Z M 293.398438 197.640625 " fill-opacity="1" fill-rule="nonzero"/></g><path fill="#47423e" d="M 290.351562 198.621094 C 283.707031 190.800781 280.042969 180.832031 280.042969 170.539062 C 280.042969 160.261719 283.707031 150.289062 290.351562 142.46875 L 292.59375 144.359375 C 286.398438 151.652344 282.988281 160.949219 282.988281 170.539062 C 282.988281 180.128906 286.398438 189.425781 292.59375 196.71875 Z M 290.351562 198.621094 " fill-opacity="1" fill-rule="nonzero"/><path fill="#ffffff" d="M 197.144531 151.578125 L 193.015625 187.59375 " fill-opacity="1" fill-rule="nonzero"/><path fill="#47423e" d="M 193.015625 189.058594 C 192.957031 189.058594 192.898438 189.058594 192.839844 189.046875 C 192.035156 188.957031 191.464844 188.226562 191.550781 187.421875 L 195.679688 151.386719 C 195.769531 150.582031 196.5 150.011719 197.304688 150.097656 C 198.109375 150.1875 198.683594 150.917969 198.59375 151.722656 L 194.464844 187.757812 C 194.378906 188.519531 193.746094 189.058594 193.015625 189.058594 Z M 193.015625 189.058594 " fill-opacity="1" fill-rule="nonzero"/><path fill="#47423e" d="M 184.949219 181.621094 C 184.539062 181.621094 184.144531 181.460938 183.851562 181.125 L 176.207031 172.441406 C 175.695312 171.855469 175.722656 170.976562 176.28125 170.421875 L 185.167969 161.738281 C 185.753906 161.167969 186.675781 161.183594 187.230469 161.769531 C 187.804688 162.355469 187.789062 163.277344 187.203125 163.832031 L 179.3125 171.546875 L 186.046875 179.191406 C 186.574219 179.792969 186.53125 180.730469 185.914062 181.253906 C 185.636719 181.503906 185.300781 181.621094 184.949219 181.621094 Z M 184.949219 181.621094 " fill-opacity="1" fill-rule="nonzero"/><path fill="#47423e" d="M 204.171875 181.621094 C 203.792969 181.621094 203.410156 181.476562 203.117188 181.183594 C 202.546875 180.597656 202.5625 179.675781 203.148438 179.117188 L 211.039062 171.402344 L 204.304688 163.757812 C 203.777344 163.160156 203.820312 162.222656 204.4375 161.695312 C 205.035156 161.152344 205.972656 161.226562 206.5 161.828125 L 214.144531 170.507812 C 214.65625 171.09375 214.625 171.972656 214.070312 172.53125 L 205.183594 181.210938 C 204.917969 181.488281 204.539062 181.621094 204.171875 181.621094 Z M 204.171875 181.621094 " fill-opacity="1" fill-rule="nonzero"/><path fill="#47423e" d="M 244.203125 178.429688 C 243.820312 178.429688 243.441406 178.285156 243.148438 177.992188 C 242.578125 177.40625 242.59375 176.484375 243.175781 175.925781 L 251.070312 168.210938 L 244.335938 160.566406 C 243.808594 159.96875 243.867188 159.03125 244.464844 158.503906 C 245.066406 157.960938 246.003906 158.019531 246.53125 158.632812 L 254.171875 167.316406 C 254.6875 167.902344 254.65625 168.78125 254.101562 169.335938 L 245.210938 178.019531 C 244.949219 178.285156 244.582031 178.429688 244.203125 178.429688 Z M 244.203125 178.429688 " fill-opacity="1" fill-rule="nonzero"/><path fill="#47423e" d="M 274.554688 181.035156 L 257.746094 181.035156 C 256.941406 181.035156 256.28125 180.378906 256.28125 179.570312 C 256.28125 178.765625 256.941406 178.109375 257.746094 178.109375 L 274.554688 178.109375 C 275.359375 178.109375 276.019531 178.765625 276.019531 179.570312 C 276.019531 180.378906 275.359375 181.035156 274.554688 181.035156 Z M 274.554688 181.035156 " fill-opacity="1" fill-rule="nonzero"/><path fill="#ffffff" d="M 130.746094 151.460938 L 126.617188 187.476562 " fill-opacity="1" fill-rule="nonzero"/><path fill="#47423e" d="M 126.617188 188.941406 C 126.558594 188.941406 126.5 188.941406 126.441406 188.929688 C 125.636719 188.839844 125.0625 188.109375 125.152344 187.304688 L 129.28125 151.269531 C 129.367188 150.464844 130.117188 149.894531 130.90625 149.980469 C 131.710938 150.070312 132.28125 150.800781 132.195312 151.605469 L 128.066406 187.640625 C 127.976562 188.402344 127.347656 188.941406 126.617188 188.941406 Z M 126.617188 188.941406 " fill-opacity="1" fill-rule="nonzero"/><path fill="#47423e" d="M 139.734375 182.777344 C 141.140625 182.28125 141.859375 180.949219 141.886719 178.765625 L 141.886719 175.839844 C 141.886719 173.757812 142.738281 172.308594 144.421875 171.488281 C 142.738281 170.683594 141.886719 169.207031 141.886719 167.082031 L 141.886719 164.183594 C 141.84375 162.03125 141.125 160.699219 139.734375 160.171875 L 140.511719 157.945312 C 142.164062 158.414062 143.410156 159.160156 144.230469 160.203125 C 145.066406 161.253906 145.476562 162.617188 145.488281 164.316406 L 145.488281 167.289062 C 145.53125 169.117188 146.351562 170.039062 147.949219 170.039062 L 147.949219 172.910156 C 146.308594 172.910156 145.488281 173.875 145.488281 175.808594 L 145.488281 178.8125 C 145.417969 182.046875 143.761719 184.109375 140.511719 185.019531 Z M 139.734375 182.777344 " fill-opacity="1" fill-rule="nonzero"/><path fill="#47423e" d="M 118.167969 160.726562 C 116.761719 161.226562 116.046875 162.558594 116.015625 164.738281 L 116.015625 167.667969 C 116.015625 169.746094 115.167969 171.195312 113.484375 172.015625 C 115.167969 172.824219 116.015625 174.300781 116.015625 176.425781 L 116.015625 179.324219 C 116.058594 181.476562 116.777344 182.808594 118.167969 183.335938 L 117.390625 185.558594 C 115.738281 185.09375 114.492188 184.34375 113.671875 183.304688 C 112.839844 182.25 112.429688 180.890625 112.414062 179.191406 L 112.414062 176.21875 C 112.371094 174.390625 111.550781 173.464844 109.953125 173.464844 L 109.953125 170.597656 C 111.59375 170.597656 112.414062 169.628906 112.414062 167.699219 L 112.414062 164.695312 C 112.488281 161.460938 114.140625 159.394531 117.390625 158.488281 Z M 118.167969 160.726562 " fill-opacity="1" fill-rule="nonzero"/><path fill="#47423e" d="M 346.75 170.554688 C 333.148438 174.460938 329.972656 177.640625 326.0625 191.242188 C 322.152344 177.640625 318.976562 174.460938 305.375 170.554688 C 318.976562 166.644531 322.152344 163.464844 326.0625 149.863281 C 329.972656 163.464844 333.148438 166.628906 346.75 170.554688 Z M 346.75 170.554688 " fill-opacity="1" fill-rule="nonzero"/><g clip-path="url(#f6534c504e)"><g clip-path="url(#f2ee3550df)"><path fill="#ffffff" d="M 170.851562 143.851562 L 221.945312 143.851562 L 221.945312 194.550781 L 170.851562 194.550781 Z M 170.851562 143.851562 " fill-opacity="1" fill-rule="nonzero"/></g></g><g clip-path="url(#54e3b782ad)"><g clip-path="url(#84da161f72)"><path fill="#125273" d="M 304.726562 144.675781 L 353.398438 144.675781 L 353.398438 196.203125 L 304.726562 196.203125 Z M 304.726562 144.675781 " fill-opacity="1" fill-rule="nonzero"/></g></g><g clip-path="url(#0d6cc2dd48)"><g clip-path="url(#4370085d45)"><path fill="#ffffff" d="M 185.699219 169.125 L 195.832031 169.125 L 195.832031 178.949219 L 185.699219 178.949219 Z M 185.699219 169.125 " fill-opacity="1" fill-rule="nonzero"/></g></g><g clip-path="url(#c7cf679d41)"><path fill="#47423e" d="M 218.226562 139.09375 L 211.199219 140.097656 C 207.074219 140.6875 203.449219 143.148438 201.382812 146.761719 L 199.226562 150.535156 L 184.628906 150.535156 C 183.980469 150.53125 183.460938 150.789062 183.074219 151.308594 C 178.414062 157.601562 173.046875 167.050781 173.046875 175.625 C 173.046875 185.457031 182.785156 193 194.28125 193 C 205.773438 193 215.511719 185.457031 215.511719 175.625 C 215.511719 167.050781 210.144531 157.601562 205.484375 151.308594 C 205.097656 150.789062 204.578125 150.53125 203.929688 150.535156 L 203.667969 150.535156 L 204.730469 148.679688 C 206.207031 146.09375 208.792969 144.34375 211.742188 143.921875 L 218.769531 142.910156 Z M 183.21875 158.253906 L 205.339844 158.253906 C 208.695312 163.730469 211.652344 170.320312 211.652344 175.625 C 211.652344 182.851562 204.105469 189.136719 194.28125 189.136719 C 184.457031 189.136719 176.90625 182.851562 176.90625 175.625 C 176.90625 170.320312 179.863281 163.730469 183.21875 158.253906 Z M 183.21875 158.253906 " fill-opacity="1" fill-rule="nonzero"/></g><g clip-path="url(#b1c4e92c0e)"><path fill="#ffd700" d="M 348.394531 170.683594 C 331.570312 173.78125 329.058594 176.292969 325.960938 193.117188 C 322.863281 176.292969 320.355469 173.78125 303.527344 170.683594 C 320.355469 167.585938 322.863281 165.074219 325.960938 148.25 C 329.058594 165.074219 331.570312 167.585938 348.394531 170.683594 Z M 348.394531 170.683594 " fill-opacity="1" fill-rule="nonzero"/></g></svg>